<?xml version="1.0" encoding="UTF-8"?>
<svg version="1.1" xmlns="http://www.w3.org/2000/svg" width="1024" height="1024">
<path d="M0 0 C337.92 0 675.84 0 1024 0 C1024 337.92 1024 675.84 1024 1024 C686.08 1024 348.16 1024 0 1024 C0 686.08 0 348.16 0 0 Z " fill="#DFDFDF" transform="translate(0,0)"/>
<path d="M0 0 C2.375 1.625 2.375 1.625 4 4 C4.92060119 9.29345684 2.9766908 11.75939684 0 16 C1.69355086 15.57661228 3.38708844 15.15317139 5.08056641 14.72949219 C6.53574106 14.36594416 7.99114805 14.00332496 9.44677734 13.64160156 C12.81191206 12.80420843 16.17123262 11.95462905 19.5234375 11.06640625 C20.54695312 10.79699219 21.57046875 10.52757812 22.625 10.25 C23.52476562 10.00765625 24.42453125 9.7653125 25.3515625 9.515625 C29.55424749 8.69740314 32.79679765 8.1978651 36.4375 10.625 C38 13 38 13 37.7890625 15.78125 C36.94514491 19.22376531 35.69650357 21.80610016 33.9375 24.875 C33.38964844 25.84179688 32.84179688 26.80859375 32.27734375 27.8046875 C31.85582031 28.52914063 31.43429687 29.25359375 31 30 C31.99966797 30.16435547 31.99966797 30.16435547 33.01953125 30.33203125 C44.92900629 32.38079409 55.1327382 35.67956974 66 41 C67.11375 41.51433594 68.2275 42.02867187 69.375 42.55859375 C84.49112078 49.72157371 97.08745064 59.35144065 109 71 C109.72445313 71.66257812 110.44890625 72.32515625 111.1953125 73.0078125 C137.75357279 97.84569965 153.95222603 139.13149514 155.22119141 175.09204102 C155.34210546 179.91344213 155.37139062 184.73312533 155.37060547 189.5559082 C155.37495733 192.53330666 155.41133732 195.50919227 155.44921875 198.48632812 C155.60914221 225.67219279 149.75303812 251.73580545 132 273 C131.50242187 273.64324219 131.00484375 274.28648437 130.4921875 274.94921875 C113.668501 295.78860932 86.03741904 307.00880871 61 314 C60.17628906 314.25136719 59.35257813 314.50273438 58.50390625 314.76171875 C15.27516223 327.50779148 -35.95409274 328.12185468 -80.01904297 319.38232422 C-82.00998909 318.99807211 -84.00425797 318.652199 -86.00390625 318.31640625 C-121.00866948 312.34415106 -157.86498466 296.44392875 -179.14379883 266.87573242 C-200.79503808 235.43968543 -201.60966545 192.50569845 -195.25390625 156.23828125 C-190.13326679 129.6620408 -179.04130511 102.45628296 -161 82 C-160.30390625 81.195625 -159.6078125 80.39125 -158.890625 79.5625 C-156.63377621 77.00153683 -154.33068322 74.49390696 -152 72 C-151.16726563 71.10152344 -150.33453125 70.20304687 -149.4765625 69.27734375 C-129.36247666 48.30796687 -100.40291651 33.94333688 -71.98144531 28.41259766 C-63.90452276 26.80720873 -57.35248802 23.97508444 -50.16531372 19.98928833 C-39.7217402 14.21839729 -29.10755138 9.07315549 -18.0625 4.5625 C-16.93827637 4.09650391 -15.81405273 3.63050781 -14.65576172 3.15039062 C-9.54851557 1.11031255 -5.58206615 -0.43559055 0 0 Z " fill="#393938" transform="translate(533,359)"/>
<path d="M0 0 C1.02679871 0.00364059 1.02679871 0.00364059 2.07434082 0.00735474 C12.82209631 0.08124673 21.93571092 0.95143062 31.75 5.5 C32.52263184 5.84305176 33.29526367 6.18610352 34.09130859 6.53955078 C47.29965079 12.42674156 47.29965079 12.42674156 53.07080078 15.89453125 C57.81049621 18.74215871 61.06021501 20.43965698 66.75 19.5 C69.52322426 18.38242116 72.04802903 16.94645799 74.625 15.4375 C80.48912034 12.17714464 86.36073253 9.19195673 92.5625 6.625 C93.20622559 6.35163818 93.84995117 6.07827637 94.51318359 5.79663086 C105.17084372 1.47172507 115.4669335 -0.06080746 126.9375 0 C128.21326904 0.00644531 129.48903809 0.01289063 130.8034668 0.01953125 C140.86160002 0.21368151 149.53753351 1.46194679 158.75 5.5 C159.44931641 5.80534668 160.14863281 6.11069336 160.86914062 6.42529297 C168.72380859 9.94932673 176.23627423 13.80048995 182.75 19.5 C182.75 20.16 182.75 20.82 182.75 21.5 C183.33394531 21.74363281 183.91789062 21.98726563 184.51953125 22.23828125 C197.22751531 29.42686068 205.3066079 50.33999815 209.25878906 63.64697266 C210.22196232 67.28041451 210.61368923 70.75145378 210.75 74.5 C210.08427979 74.12633301 209.41855957 73.75266602 208.73266602 73.36767578 C185.27444959 60.36337457 158.89871608 49.17705073 131.5625 55.625 C120.34321759 59.46551506 113.95534192 65.71719045 107.8125 75.625 C105.03134805 83.08196368 105.69466277 92.74422896 108.5 100.0625 C109.21292469 101.55988853 109.95913511 103.04227343 110.75 104.5 C111.306875 105.53125 111.86375 106.5625 112.4375 107.625 C124.8434075 123.04856067 141.5884348 126.80546576 160.01953125 130.921875 C176.09429639 134.57366286 192.53190501 141.11291514 204.75 152.5 C206.12337437 156.62012312 204.56350093 159.10317455 202.875 162.875 C202.55764893 163.58744873 202.24029785 164.29989746 201.91333008 165.03393555 C191.2396171 188.14184108 172.73550415 203.63882842 149.75 213.5 C148.60229126 213.99717529 148.60229126 213.99717529 147.43139648 214.50439453 C139.658684 217.60757713 131.75127366 218.95828259 123.52807617 220.25537109 C121.21391976 220.62082773 118.90287385 221.00231855 116.59179688 221.38671875 C99.14240993 224.24997287 82.06803592 225.88458506 64.375 225.8125 C63.46368317 225.81100952 62.55236633 225.80951904 61.61343384 225.8079834 C38.63116522 225.74079918 16.21113888 223.47674106 -6.25 218.5 C-6.93835938 218.35481934 -7.62671875 218.20963867 -8.3359375 218.06005859 C-31.174689 213.16845841 -53.31811753 198.95072228 -66.44921875 179.48046875 C-68.65221418 175.83429626 -70.63829391 172.11193239 -72.5625 168.3125 C-72.90023438 167.64734375 -73.23796875 166.9821875 -73.5859375 166.296875 C-75.6458291 162.10203502 -77.09288057 158.02862479 -78.25 153.5 C-64.11322513 140.15298909 -46.18784468 133.44534777 -27.4140625 129.41796875 C-14.31461862 126.60298187 0.08939757 123.24442545 9.75 113.5 C10.41 113.5 11.07 113.5 11.75 113.5 C12.01683594 112.95214844 12.28367187 112.40429688 12.55859375 111.83984375 C14.38898014 108.24508491 16.41581935 104.75984325 18.41015625 101.25390625 C21.83728203 94.2098139 21.88833745 85.20295987 20.06640625 77.67578125 C16.40398972 67.7523041 10.17946046 62.06264216 0.75 57.5 C-17.71008002 49.34322046 -41.14743051 55.12668331 -59.10449219 61.95068359 C-66.50875338 64.92485769 -73.22944476 68.64129627 -79.90625 72.99609375 C-82.25 74.5 -82.25 74.5 -83.25 74.5 C-84.10364429 56.94693939 -71.48203092 37.18401709 -60.25 24.5 C-43.85992993 7.36383276 -23.41049487 -0.11616332 0 0 Z " fill="#DFDFDF" transform="translate(448.25,443.5)"/>
<path d="M0 0 C-0.350625 0.66 -0.70125 1.32 -1.0625 2 C-2.36113827 6.15564248 -1.90836205 8.73768574 -1 13 C1.74605843 15.24621573 1.74605843 15.24621573 4.5 14.9375 C7.62586215 14.1002155 10.15060825 13.06079393 13.0625 11.6875 C20.2408662 8.30481784 27.98687831 5 36 5 C35.67 5.53625 35.34 6.0725 35 6.625 C33.71707822 9.67193922 33.59004088 11.72032701 34 15 C36.24229554 18.0195501 37.60471316 18.90831217 41.30078125 19.765625 C42.63699523 19.93536212 43.97435783 20.09620136 45.3125 20.25 C78.11138566 25.11363089 109.78525152 44.0953946 129.97094727 70.37744141 C146.0502771 92.08849856 160.47631208 120.37389909 160 148 C158.0859375 147.46875 158.0859375 147.46875 156 146 C155.34551423 143.43099042 154.9377937 141.11310647 154.625 138.5 C151.72418677 119.0732787 144.07669216 97.76054839 129.76171875 83.8203125 C128 82 128 82 128 80 C127.34 80 126.68 80 126 80 C126 79.34 126 78.68 126 78 C125.44828125 77.75636719 124.8965625 77.51273437 124.328125 77.26171875 C121.51284345 75.73598731 119.23685178 73.83046213 116.75 71.8125 C98.09830829 57.40433028 72.74808389 53.01532345 49.71826172 55.21826172 C38.06642794 56.73922832 27.58508728 60.4811645 17.2890625 66.0625 C16.26562744 66.61429932 15.24219238 67.16609863 14.18774414 67.73461914 C12.12874655 68.85652432 10.08057489 69.99856602 8.04467773 71.16186523 C0.85524973 75.11042201 0.85524973 75.11042201 -3.20703125 74.5859375 C-4.12871094 74.06257813 -5.05039062 73.53921875 -6 73 C-7.24273109 72.40582714 -8.48769216 71.81630476 -9.734375 71.23046875 C-11.07477215 70.55313864 -12.4132554 69.87201039 -13.75 69.1875 C-14.45882324 68.83075195 -15.16764648 68.47400391 -15.89794922 68.10644531 C-18.87605799 66.60550566 -21.83814715 65.08730935 -24.7734375 63.50390625 C-44.18842864 53.15139436 -70.13613143 51.65040916 -91.17578125 57.7421875 C-117.2948988 66.07231799 -134.29169699 82.24511844 -146.8125 105.9375 C-152.10060948 117.01142339 -155.26489813 128.36537058 -156.92480469 140.50512695 C-157.35340526 143.41066435 -157.69616955 145.58812289 -159.4609375 147.98046875 C-161 149 -161 149 -163 149 C-157.03114485 108.93258637 -140.2873639 70.28203774 -106.875 45.4375 C-89.05177418 32.57430959 -70.26566138 24.79650344 -48.83984375 20.140625 C-38.81106631 17.84983276 -30.31957133 13.77077169 -21.25 8.9375 C-18.86114392 7.67238067 -16.46990495 6.41194374 -14.078125 5.15234375 C-13.03043945 4.59538818 -11.98275391 4.03843262 -10.90332031 3.46459961 C-4.03533922 0 -4.03533922 0 0 0 Z " fill="#DEDEDE" transform="translate(513,381)"/>
<path d="M0 0 C3.4375 2 3.4375 2 6 5 C6.86471102 9.05749016 7.06084456 11.24713497 4.91015625 14.80078125 C3.05433884 17.00604011 1.06506582 18.9873803 -1 21 C-2.11334356 22.1106131 -3.22520355 23.22271451 -4.3359375 24.3359375 C-6.13649077 26.14035151 -7.93967305 27.94087792 -9.76025391 29.72509766 C-12.75063911 32.66848269 -15.61015485 35.65931802 -18.34375 38.84375 C-23.23911694 44.51494519 -28.63671291 49.68194652 -33.97265625 54.93359375 C-38.32714622 59.24614642 -42.51071266 63.62213702 -46.50341797 68.27197266 C-48.35780817 70.41314294 -50.30587982 72.43892238 -52.3125 74.4375 C-52.96863281 75.09621094 -53.62476563 75.75492187 -54.30078125 76.43359375 C-56.44477988 78.41001547 -57.74689354 78.95178925 -60.625 79.5 C-68.8959809 78.2746695 -76.06733169 68.08443126 -81.75 62.375 C-83.00490234 61.12589844 -83.00490234 61.12589844 -84.28515625 59.8515625 C-85.49751953 58.63726562 -85.49751953 58.63726562 -86.734375 57.3984375 C-87.45850586 56.67317871 -88.18263672 55.94791992 -88.92871094 55.20068359 C-94.81967244 48.94171059 -94.81967244 48.94171059 -95.5625 45.0625 C-94.77713832 40.78664194 -93.18915605 38.91773852 -90 36 C-86.6875 34.75 -86.6875 34.75 -83 35 C-80.02026928 36.6682102 -77.51662842 38.70220884 -75 41 C-74.42765625 41.52078125 -73.8553125 42.0415625 -73.265625 42.578125 C-72 44 -72 44 -72 46 C-71.34 46 -70.68 46 -70 46 C-70 46.66 -70 47.32 -70 48 C-69.34 48 -68.68 48 -68 48 C-67.21625 48.825 -66.4325 49.65 -65.625 50.5 C-63.12140805 53.45977011 -63.12140805 53.45977011 -59 53 C-57.19789933 51.76430676 -57.19789933 51.76430676 -55.57421875 50 C-54.63243774 49.04661743 -54.63243774 49.04661743 -53.67163086 48.07397461 C-53.01686768 47.38956299 -52.36210449 46.70515137 -51.6875 46 C-51.00888916 45.30592041 -50.33027832 44.61184082 -49.63110352 43.89672852 C-45.93151901 40.08992262 -42.35434003 36.21281401 -38.93359375 32.15234375 C-35.49595081 28.32579574 -31.78373657 24.76512204 -28.12841797 21.14794922 C-24.42981972 17.47316808 -20.8995606 13.72594192 -17.5234375 9.75 C-8.31211499 -0.8312115 -8.31211499 -0.8312115 0 0 Z " fill="#3A3A3B" transform="translate(715,325)"/>
<path d="M0 0 C3.25133168 2.16755445 4.65268848 3.42895803 5.5 7.26171875 C5.9296477 13.10671764 4.6380645 16.77144747 0.83203125 21.18359375 C-6.0585944 28.01545074 -13.18219312 31.96636685 -23 32.4375 C-30.87896944 32.16875996 -38.20427635 28.23873203 -44 23 C-47.96371521 17.78458525 -49.42771702 13.68421036 -49.34375 7.21875 C-48.77637706 3.55661556 -46.8974364 2.14158342 -44 0 C-32.25096277 -6.71373556 -11.64638845 -6.98783307 0 0 Z " fill="#39393A" transform="translate(534,548)"/>
<path d="M0 0 C5.73910317 2.56170697 10.09150224 6.70253574 12.9140625 12.34765625 C13.43245016 17.54852917 13.58001649 21.96452103 11.2890625 26.72265625 C7.21847086 31.22173122 2.83309924 35.64371874 -3.34765625 36.75390625 C-9.37715908 36.98693051 -13.31562607 35.89531031 -18.16796875 32.25390625 C-22.34690889 28.10049935 -23.82971346 23.47065543 -24.5234375 17.72265625 C-23.63215804 10.84707185 -21.1447349 6.89007471 -15.90234375 2.609375 C-10.83748457 -0.908796 -5.95641988 -1.8627755 0 0 Z " fill="#DEDEDD" transform="translate(604.0859375,517.65234375)"/>
<path d="M0 0 C4.71829884 2.76257274 8.2528418 6.09552736 10.7265625 11.04296875 C11.22834815 17.48898443 11.68885524 23.62783534 7.7265625 29.04296875 C2.92666136 33.63417854 -0.97490294 36.05029869 -7.5859375 36.48046875 C-12.80476435 36.34999808 -16.37345081 34.43119248 -20.2734375 31.04296875 C-24.46470521 25.6695486 -25.70695128 21.36951398 -25.609375 14.67578125 C-24.94039073 9.43281149 -22.35237499 5.93752154 -18.51171875 2.4375 C-12.84768467 -1.66404192 -6.54774453 -2.75635294 0 0 Z " fill="#DDDEDD" transform="translate(432.2734375,517.95703125)"/>
<path d="M0 0 C0.66 0 1.32 0 2 0 C2.51046875 1.17755859 2.51046875 1.17755859 3.03125 2.37890625 C8.05320028 13.26425062 13.78827324 18.82155554 25 23 C25 23.66 25 24.32 25 25 C24.21496094 25.3403125 23.42992187 25.680625 22.62109375 26.03125 C11.73574938 31.05320028 6.17844446 36.78827324 2 48 C1.34 48 0.68 48 0 48 C-0.3403125 47.21496094 -0.680625 46.42992187 -1.03125 45.62109375 C-6.05320028 34.73574938 -11.78827324 29.17844446 -23 25 C-23 24.34 -23 23.68 -23 23 C-22.21496094 22.6596875 -21.42992187 22.319375 -20.62109375 21.96875 C-9.73574938 16.94679972 -4.17844446 11.21172676 0 0 Z " fill="#EEEEEF" transform="translate(967,944)"/>
<path d="M0 0 C2.89989959 -0.4388006 4.45649827 -0.31845805 7 1.171875 C7.66 1.69265625 8.32 2.2134375 9 2.75 C20.93715151 10.9811731 36.08550015 11.91620484 50.15405273 9.65356445 C54.92820077 8.5785869 59.11868809 6.70195814 63.4375 4.4375 C64.06076172 4.12103516 64.68402344 3.80457031 65.32617188 3.47851562 C68.36184526 2.03046624 68.36184526 2.03046624 71 0 C73.4375 -0.1875 73.4375 -0.1875 76 0 C78 2 78 2 78.1875 4.75 C76.32475674 9.8480342 72.68979438 11.56314606 68 14 C50.5018559 21.99978124 32.7902983 23.4076364 14.43359375 17.12109375 C9.0553057 14.88559663 3.24054752 12.02284084 -1 8 C-1.875 5.49609375 -1.875 5.49609375 -2 3 C-1.34 2.01 -0.68 1.02 0 0 Z " fill="#3E3E3E" transform="translate(474,582)"/>
<path d="M0 0 C4.89061492 7.33592239 6.67913915 16.21948788 8.75 24.6875 C8.97276611 25.57808105 9.19553223 26.46866211 9.42504883 27.38623047 C10.69136218 32.73288685 11.23020907 37.50695591 11 43 C9.0859375 42.46875 9.0859375 42.46875 7 41 C6.34553641 38.43107751 5.93644667 36.11324133 5.625 33.5 C4.2322588 23.90025627 1.26908891 15.10255296 -2 6 C-2.33 5.01 -2.66 4.02 -3 3 C-2.01 2.01 -1.02 1.02 0 0 Z " fill="#CCCBC8" transform="translate(662,486)"/>
<path d="M0 0 C0.3449145 1.33038449 0.67516582 2.66457061 1 4 C1.22300781 4.75023437 1.44601562 5.50046875 1.67578125 6.2734375 C2.11520963 9.96887132 1.18231789 13.10187863 0.1875 16.625 C-1.35513661 22.34870017 -2.60819013 27.97919272 -3.41015625 33.86328125 C-4.10388534 36.37632635 -4.94881916 37.41941426 -7 39 C-7.66 39 -8.32 39 -9 39 C-6.92891267 25.6354263 -4.5210676 12.76645729 0 0 Z " fill="#CBC9C7" transform="translate(359,491)"/>
<path d="M0 0 C0.66 0 1.32 0 2 0 C2.4125 1.02738281 2.825 2.05476562 3.25 3.11328125 C6.92040438 12.00393573 10.882873 19.50056118 17 27 C16.67 27.66 16.34 28.32 16 29 C2.0396594 14.46751429 2.0396594 14.46751429 -2 6 C-1.63969466 1.63969466 -1.63969466 1.63969466 0 0 Z " fill="#D3D3D3" transform="translate(362,604)"/>
<path d="M0 0 C1.32 0.66 2.64 1.32 4 2 C2.18073958 11.241016 -6.14294115 19.03660781 -12 26 C-12.66 25.67 -13.32 25.34 -14 25 C-13.6596875 24.5359375 -13.319375 24.071875 -12.96875 23.59375 C-7.76448716 16.17490722 -3.93313318 8.13579578 0 0 Z " fill="#D1D1D0" transform="translate(660,605)"/>
<path d="M0 0 C0.33 0 0.66 0 1 0 C1.06058594 0.99902344 1.12117188 1.99804688 1.18359375 3.02734375 C1.26738281 4.31769531 1.35117187 5.60804688 1.4375 6.9375 C1.51871094 8.22527344 1.59992188 9.51304687 1.68359375 10.83984375 C1.64919188 13.86023957 1.64919188 13.86023957 3 15 C3.29416702 17.88224251 3.5168339 20.73505399 3.6875 23.625 C3.74744141 24.42035156 3.80738281 25.21570313 3.86914062 26.03515625 C4.1775469 31.18089376 3.70411036 35.12924779 2 40 C1.67 40 1.34 40 1 40 C-0.01125055 31.25673005 -0.11957711 22.60676561 -0.0625 13.8125 C-0.05746963 12.46549648 -0.05290947 11.11849111 -0.04882812 9.77148438 C-0.03715354 6.51427463 -0.02077883 3.25716222 0 0 Z " fill="#4E4E4E" transform="translate(335,536)"/>
<path d="M0 0 C1.32 0 2.64 0 4 0 C4.45439453 0.97839844 4.45439453 0.97839844 4.91796875 1.9765625 C7.46004706 7.27972895 10.01380014 11.67212586 14 16 C13.67 16.66 13.34 17.32 13 18 C11.3936298 16.2519799 9.78986703 14.50168356 8.1875 12.75 C7.73568359 12.25886719 7.28386719 11.76773438 6.81835938 11.26171875 C0 3.79636177 0 3.79636177 0 0 Z " fill="#C8C7C8" transform="translate(365,615)"/>
<path d="M0 0 C1.1171875 1.734375 1.1171875 1.734375 2 4 C1.3203125 6.140625 1.3203125 6.140625 0.125 8.25 C-0.26429688 8.95640625 -0.65359375 9.6628125 -1.0546875 10.390625 C-1.36664063 10.92171875 -1.67859375 11.4528125 -2 12 C-4 9 -4 9 -3.828125 6.9921875 C-3.63734375 6.29351562 -3.4465625 5.59484375 -3.25 4.875 C-3.06953125 4.17117188 -2.8890625 3.46734375 -2.703125 2.7421875 C-2 1 -2 1 0 0 Z " fill="#D7D5D5" transform="translate(363,486)"/>
<path d="M0 0 C0.33 1.32 0.66 2.64 1 4 C1.226875 4.845625 1.45375 5.69125 1.6875 6.5625 C2 9 2 9 0 12 C-0.99 12 -1.98 12 -3 12 C-2.01 8.04 -1.02 4.08 0 0 Z " fill="#C0BEBC" transform="translate(359,491)"/>
<path d="M0 0 C0.66 0 1.32 0 2 0 C1.25 7.75 1.25 7.75 -1 10 C-2.46726798 6.18510326 -1.43336419 3.70988378 0 0 Z " fill="#D9D6D5" transform="translate(357,502)"/>
<path d="M0 0 C0.66 0 1.32 0 2 0 C1.52797514 4.24822374 -0.96655518 6.19989709 -4 9 C-2.94124926 5.59687262 -1.99097846 2.98646769 0 0 Z " fill="#CFCECE" transform="translate(376,485)"/>
<path d="M0 0 C0.66 0.99 1.32 1.98 2 3 C0.02 5.31 -1.96 7.62 -4 10 C-4.66 9.67 -5.32 9.34 -6 9 C-4.02 6.03 -2.04 3.06 0 0 Z " fill="#B2B1B3" transform="translate(652,621)"/>
<path d="M0 0 C0.66 0.99 1.32 1.98 2 3 C0.625 5 0.625 5 -1 7 C-1.66 7 -2.32 7 -3 7 C-1.125 1.125 -1.125 1.125 0 0 Z " fill="#D3D3D2" transform="translate(411,523)"/>
</svg>
